# xmcd
#
# Track frame offsets: 
#        150
#        28046
#        40276
#        59039
#        71936
#        87196
#        101976
#
# Disc length: 1481 seconds
#
# Revision: 0
# Processed by: cddbd v1.5.2PL0 Copyright (c) Steve Scherf et al.
# Submitted via: ExactAudioCopy v0.99pb3
#
DISCID=6705c707
DTITLE=Eric Bibb - Spirit I Am [CD2 Field Recordings)
DYEAR=2008
DGENRE=Blues
TTITLE0=No More Cane On The Brazos
TTITLE1=Stagolee
TTITLE2=Goodnight Irene
TTITLE3=Bourgeois Blues
TTITLE4=Hold On
TTITLE5=Water
TTITLE6=I Shall Not Be Moved
EXTD=
EXTT0=
EXTT1=
EXTT2=
EXTT3=
EXTT4=
EXTT5=
EXTT6=
PLAYORDER=
